# xmcd
#
# Track frame offsets: 
#        150
#        16210
#        31240
#        43042
#        63195
#        76542
#        85757
#        101077
#        116577
#        128135
#        142540
#        163852
#        177387
#        189425
#
# Disc length: 2659 seconds
#
# Revision: 0
# Processed by: cddbd v1.5.2PL0 Copyright (c) Steve Scherf et al.
# Submitted via: ExactAudioCopy v0.99pb4
#
DISCID=a40a610e
DTITLE=Brian Demarco - Big Heart Small Worries
DYEAR=2004
DGENRE=Folk/Rock
TTITLE0=Movin' so Fast
TTITLE1=High Country
TTITLE2=Chasin' Butterflies
TTITLE3=In a World Gone Wrong
TTITLE4=Wash
TTITLE5=Silver City
TTITLE6=Back Out Into the Rain
TTITLE7=Little White Lies
TTITLE8=The Great Escape
TTITLE9=Tired But Holdin' On
TTITLE10=Livin' Free
TTITLE11=I Hate to See You Down
TTITLE12=Building a Levy
TTITLE13=Out On a Limb
EXTD=
EXTT0=
EXTT1=
EXTT2=
EXTT3=
EXTT4=
EXTT5=
EXTT6=
EXTT7=
EXTT8=
EXTT9=
EXTT10=
EXTT11=
EXTT12=
EXTT13=
PLAYORDER=
